<svg width="32" height="32" viewBox="0 0 32 32" fill="none" xmlns="http://www.w3.org/2000/svg">
<rect width="32" height="32" rx="16" fill="#FCFCFC"/>
<rect x="0.5" y="0.5" width="31" height="31" rx="15.5" stroke="#A8BED5" stroke-opacity="0.2"/>
<rect x="3" y="3" width="26" height="26" rx="13" fill="#173C90"/>
<path d="M22 19.8889C22 20.1836 21.8851 20.4662 21.6805 20.6746C21.4759 20.8829 21.1984 21 20.9091 21H11.0909C10.8016 21 10.5241 20.8829 10.3195 20.6746C10.1149 20.4662 10 20.1836 10 19.8889V13.7778C10 13.4831 10.1149 13.2005 10.3195 12.9921C10.5241 12.7837 10.8016 12.6667 11.0909 12.6667H13.2727L14.3636 11H17.6364L18.7273 12.6667H20.9091C21.1984 12.6667 21.4759 12.7837 21.6805 12.9921C21.8851 13.2005 22 13.4831 22 13.7778V19.8889Z" fill="#173C90" stroke="#FCFCFC" stroke-linecap="round" stroke-linejoin="round"/>
<path d="M15.9999 18.7782C17.2049 18.7782 18.1818 17.7833 18.1818 16.556C18.1818 15.3287 17.2049 14.3338 15.9999 14.3338C14.7949 14.3338 13.8181 15.3287 13.8181 16.556C13.8181 17.7833 14.7949 18.7782 15.9999 18.7782Z" fill="#173C90" stroke="#FCFCFC" stroke-linecap="round" stroke-linejoin="round"/>
</svg>
