<svg width="14" height="15" viewBox="0 0 14 15" fill="none" xmlns="http://www.w3.org/2000/svg">
<path d="M13 8.08559C12.8949 9.31757 12.4681 10.4917 11.7696 11.4704C11.071 12.4492 10.1296 13.1923 9.05544 13.6126C7.9813 14.0329 6.81888 14.1131 5.70419 13.8439C4.5895 13.5746 3.56866 12.967 2.7611 12.0921C1.95354 11.2173 1.39267 10.1114 1.14412 8.90379C0.895572 7.69622 0.969623 6.43693 1.35761 5.27328C1.74559 4.10963 2.43147 3.08975 3.33497 2.33298C4.23848 1.57621 5.32224 1.11385 6.45946 1C5.79366 1.97582 5.47327 3.17811 5.55656 4.38821C5.63986 5.59831 6.12132 6.73582 6.91336 7.59387C7.7054 8.45191 8.75541 8.97348 9.87242 9.06372C10.9894 9.15396 12.0992 8.80687 13 8.08559V8.08559Z" stroke="#0D0D0D" stroke-linecap="round" stroke-linejoin="round"/>
</svg>
