<svg width="27" height="20" viewBox="0 0 27 20" fill="none" xmlns="http://www.w3.org/2000/svg">
<path d="M18.4208 5.60217C19.1521 7.00246 19.5226 8.56302 19.4989 10.1426C19.4752 11.7222 19.058 13.2709 18.285 14.6486" stroke="#222222"/>
<path d="M20.5 3.5C17.7189 7.20812 10.6409 9.62717 9.62274 9.96045C9.57878 9.97484 9.57584 10.0335 9.61809 10.0523C10.6191 10.4983 17.7146 13.7146 20.5 16.5" stroke="#222222" stroke-linecap="round"/>
<path d="M19.233 12.4891C18.8905 12.5212 18.545 12.4822 18.2182 12.3746C17.8915 12.267 17.5904 12.0932 17.3339 11.8639C17.0774 11.6346 16.871 11.3549 16.7276 11.0422C16.5842 10.7295 16.5068 10.3905 16.5004 10.0466C16.494 9.70261 16.5587 9.36102 16.6903 9.04319C16.822 8.72536 17.0179 8.43812 17.2656 8.19945C17.5134 7.96079 17.8078 7.77583 18.1303 7.65615C18.4528 7.53647 18.7966 7.48465 19.1401 7.50393" stroke="#222222"/>
<path d="M22.5 10H26.5" stroke="#222222" stroke-linecap="round"/>
<path d="M22.5 7.5L26.5 6" stroke="#222222" stroke-linecap="round"/>
<path d="M22.5 12.5L26.5 14" stroke="#222222" stroke-linecap="round"/>
</svg>
