<svg width="28" height="20" viewBox="0 0 28 20" fill="none" xmlns="http://www.w3.org/2000/svg">
<path d="M17.7248 5.3818C18.4927 6.66636 18.9282 8.12214 18.9919 9.6174C19.0555 11.1127 18.7452 12.6002 18.0892 13.9453" stroke="#33363F" stroke-width="2"/>
<path d="M20 3C17.1857 5.81427 9.97138 9.50856 9.0889 9.95519C9.05214 9.9738 9.05214 10.0262 9.0889 10.0448C9.97137 10.4914 17.1857 14.1857 20 17" stroke="#33363F" stroke-width="2" stroke-linecap="round"/>
<path d="M22 10H27" stroke="#33363F" stroke-width="2" stroke-linecap="round"/>
<path d="M22 7L27 5" stroke="#33363F" stroke-width="2" stroke-linecap="round"/>
<path d="M22 13L27 15" stroke="#33363F" stroke-width="2" stroke-linecap="round"/>
<path fill-rule="evenodd" clip-rule="evenodd" d="M19.6873 7.51862C19.4971 6.77615 19.2215 6.05518 18.864 5.37061L10 9.9999L18.721 14.8932C19.1484 14.1314 19.4725 13.32 19.6875 12.4802C19.2067 12.8079 18.6257 12.9995 18 12.9995C16.3431 12.9995 15 11.6564 15 9.99951C15 8.34266 16.3431 6.99951 18 6.99951C18.6256 6.99951 19.2065 7.19102 19.6873 7.51862Z" fill="#33363F"/>
</svg>
