<svg width="14" height="15" viewBox="0 0 14 15" fill="none" xmlns="http://www.w3.org/2000/svg">
<path d="M7 14C10.3137 14 13 11.0899 13 7.5C13 3.91015 10.3137 1 7 1C3.68629 1 1 3.91015 1 7.5C1 11.0899 3.68629 14 7 14Z" stroke="black" stroke-linecap="round" stroke-linejoin="round"/>
<path d="M5.25391 5.55096C5.39497 5.11654 5.6734 4.75023 6.03988 4.51689C6.40636 4.28356 6.83724 4.19827 7.25621 4.27612C7.67518 4.35397 8.0552 4.58995 8.32895 4.94225C8.60271 5.29455 8.75254 5.74045 8.75191 6.20096C8.75191 7.50096 6.95191 8.15096 6.95191 8.15096" stroke="black" stroke-linecap="round" stroke-linejoin="round"/>
<path d="M7 10.75H7.00571" stroke="black" stroke-linecap="round" stroke-linejoin="round"/>
</svg>
