<svg width="13" height="11" viewBox="0 0 13 11" fill="none" xmlns="http://www.w3.org/2000/svg">
<path d="M5.26355 6.76762C4.91389 6.44012 4.70105 5.99508 4.70105 5.49584C4.70105 4.49565 5.5597 3.68945 6.62511 3.68945C7.15234 3.68945 7.63761 3.88972 7.98119 4.21722" stroke="#173C90" stroke-linecap="round" stroke-linejoin="round"/>
<path d="M8.51323 5.8208C8.37215 6.55682 7.75431 7.13765 6.97046 7.27116" stroke="#173C90" stroke-linecap="round" stroke-linejoin="round"/>
<path d="M3.37466 8.54471C2.4096 7.83379 1.5923 6.79538 1 5.50078C1.59838 4.20047 2.42115 3.15635 3.3923 2.43973C4.35737 1.72311 5.47081 1.33398 6.625 1.33398C7.78588 1.33398 8.89872 1.72881 9.86987 2.45057" stroke="#173C90" stroke-linecap="round" stroke-linejoin="round"/>
<path d="M11.1541 3.70483C11.5725 4.22632 11.9404 4.82826 12.2499 5.49981C11.0538 8.09985 8.94 9.66603 6.62494 9.66603C6.10014 9.66603 5.58264 9.58616 5.08521 9.43039" stroke="#173C90" stroke-linecap="round" stroke-linejoin="round"/>
<path d="M11.4215 1L1.82922 10" stroke="#173C90" stroke-linecap="round" stroke-linejoin="round"/>
</svg>
