<svg width="37" height="44" viewBox="0 0 37 44" fill="none" xmlns="http://www.w3.org/2000/svg">
<rect x="8" y="1" width="19" height="23" rx="2" stroke="#173C90"/>
<path d="M13 8H22" stroke="#173C90" stroke-linecap="round"/>
<path d="M13 13H22" stroke="#173C90" stroke-linecap="round"/>
<path d="M13 18H19" stroke="#173C90" stroke-linecap="round"/>
<path d="M6.589 31.311V39H5.819V35.403H1.65V39H0.88V31.311H1.65V34.765H5.819V31.311H6.589ZM8.73082 31.861C8.57682 31.861 8.44482 31.806 8.33482 31.696C8.22482 31.586 8.16982 31.4503 8.16982 31.289C8.16982 31.1277 8.22482 30.9957 8.33482 30.893C8.44482 30.783 8.57682 30.728 8.73082 30.728C8.88482 30.728 9.01682 30.783 9.12682 30.893C9.23682 30.9957 9.29182 31.1277 9.29182 31.289C9.29182 31.4503 9.23682 31.586 9.12682 31.696C9.01682 31.806 8.88482 31.861 8.73082 31.861ZM9.11582 32.994V39H8.34582V32.994H9.11582ZM12.9275 39.088C12.2382 39.088 11.6735 38.9303 11.2335 38.615C10.8008 38.2923 10.5588 37.856 10.5075 37.306H11.2995C11.3362 37.6433 11.4938 37.9183 11.7725 38.131C12.0585 38.3363 12.4398 38.439 12.9165 38.439C13.3345 38.439 13.6608 38.34 13.8955 38.142C14.1375 37.944 14.2585 37.6983 14.2585 37.405C14.2585 37.1997 14.1925 37.031 14.0605 36.899C13.9285 36.767 13.7598 36.6643 13.5545 36.591C13.3565 36.5103 13.0852 36.426 12.7405 36.338C12.2932 36.2207 11.9302 36.1033 11.6515 35.986C11.3728 35.8687 11.1345 35.6963 10.9365 35.469C10.7458 35.2343 10.6505 34.9227 10.6505 34.534C10.6505 34.2407 10.7385 33.9693 10.9145 33.72C11.0905 33.4707 11.3398 33.2727 11.6625 33.126C11.9852 32.9793 12.3518 32.906 12.7625 32.906C13.4078 32.906 13.9285 33.071 14.3245 33.401C14.7205 33.7237 14.9332 34.171 14.9625 34.743H14.1925C14.1705 34.391 14.0312 34.1087 13.7745 33.896C13.5252 33.676 13.1805 33.566 12.7405 33.566C12.3518 33.566 12.0365 33.6577 11.7945 33.841C11.5525 34.0243 11.4315 34.2517 11.4315 34.523C11.4315 34.7577 11.5012 34.952 11.6405 35.106C11.7872 35.2527 11.9668 35.37 12.1795 35.458C12.3922 35.5387 12.6782 35.6303 13.0375 35.733C13.4702 35.8503 13.8148 35.964 14.0715 36.074C14.3282 36.184 14.5482 36.3453 14.7315 36.558C14.9148 36.7707 15.0102 37.053 15.0175 37.405C15.0175 37.7277 14.9295 38.0173 14.7535 38.274C14.5775 38.5233 14.3318 38.7213 14.0165 38.868C13.7012 39.0147 13.3382 39.088 12.9275 39.088ZM17.4679 33.643V37.372C17.4679 37.7387 17.5376 37.9917 17.6769 38.131C17.8162 38.2703 18.0619 38.34 18.4139 38.34H19.1179V39H18.2929C17.7502 39 17.3469 38.8753 17.0829 38.626C16.8189 38.3693 16.6869 37.9513 16.6869 37.372V33.643H15.8509V32.994H16.6869V31.487H17.4679V32.994H19.1179V33.643H17.4679ZM23.0168 39.088C22.4521 39.088 21.9425 38.9633 21.4878 38.714C21.0405 38.4573 20.6848 38.098 20.4208 37.636C20.1641 37.1667 20.0358 36.6203 20.0358 35.997C20.0358 35.3737 20.1678 34.831 20.4318 34.369C20.6958 33.8997 21.0551 33.5403 21.5098 33.291C21.9645 33.0343 22.4741 32.906 23.0388 32.906C23.6035 32.906 24.1131 33.0343 24.5678 33.291C25.0298 33.5403 25.3891 33.8997 25.6458 34.369C25.9098 34.831 26.0418 35.3737 26.0418 35.997C26.0418 36.613 25.9098 37.1557 25.6458 37.625C25.3818 38.0943 25.0188 38.4573 24.5568 38.714C24.0948 38.9633 23.5815 39.088 23.0168 39.088ZM23.0168 38.417C23.4128 38.417 23.7795 38.329 24.1168 38.153C24.4541 37.9697 24.7255 37.6983 24.9308 37.339C25.1435 36.9723 25.2498 36.525 25.2498 35.997C25.2498 35.469 25.1471 35.0253 24.9418 34.666C24.7365 34.2993 24.4651 34.028 24.1278 33.852C23.7905 33.6687 23.4238 33.577 23.0278 33.577C22.6318 33.577 22.2651 33.6687 21.9278 33.852C21.5905 34.028 21.3191 34.2993 21.1138 34.666C20.9158 35.0253 20.8168 35.469 20.8168 35.997C20.8168 36.525 20.9158 36.9723 21.1138 37.339C21.3191 37.6983 21.5868 37.9697 21.9168 38.153C22.2541 38.329 22.6208 38.417 23.0168 38.417ZM28.2154 34.061C28.3841 33.687 28.6408 33.3973 28.9854 33.192C29.3374 32.9867 29.7664 32.884 30.2724 32.884V33.687H30.0634C29.5061 33.687 29.0588 33.8373 28.7214 34.138C28.3841 34.4387 28.2154 34.941 28.2154 35.645V39H27.4454V32.994H28.2154V34.061ZM36.3808 32.994L32.8168 41.827H32.0138L33.1798 38.967L30.7158 32.994H31.5628L33.6088 38.12L35.5888 32.994H36.3808Z" fill="black"/>
</svg>
