<svg width="37" height="43" viewBox="0 0 37 43" fill="none" xmlns="http://www.w3.org/2000/svg">
<path d="M6.589 30.311V38H5.819V34.403H1.65V38H0.88V30.311H1.65V33.765H5.819V30.311H6.589ZM8.73082 30.861C8.57682 30.861 8.44482 30.806 8.33482 30.696C8.22482 30.586 8.16982 30.4503 8.16982 30.289C8.16982 30.1277 8.22482 29.9957 8.33482 29.893C8.44482 29.783 8.57682 29.728 8.73082 29.728C8.88482 29.728 9.01682 29.783 9.12682 29.893C9.23682 29.9957 9.29182 30.1277 9.29182 30.289C9.29182 30.4503 9.23682 30.586 9.12682 30.696C9.01682 30.806 8.88482 30.861 8.73082 30.861ZM9.11582 31.994V38H8.34582V31.994H9.11582ZM12.9275 38.088C12.2382 38.088 11.6735 37.9303 11.2335 37.615C10.8008 37.2923 10.5588 36.856 10.5075 36.306H11.2995C11.3362 36.6433 11.4938 36.9183 11.7725 37.131C12.0585 37.3363 12.4398 37.439 12.9165 37.439C13.3345 37.439 13.6608 37.34 13.8955 37.142C14.1375 36.944 14.2585 36.6983 14.2585 36.405C14.2585 36.1997 14.1925 36.031 14.0605 35.899C13.9285 35.767 13.7598 35.6643 13.5545 35.591C13.3565 35.5103 13.0852 35.426 12.7405 35.338C12.2932 35.2207 11.9302 35.1033 11.6515 34.986C11.3728 34.8687 11.1345 34.6963 10.9365 34.469C10.7458 34.2343 10.6505 33.9227 10.6505 33.534C10.6505 33.2407 10.7385 32.9693 10.9145 32.72C11.0905 32.4707 11.3398 32.2727 11.6625 32.126C11.9852 31.9793 12.3518 31.906 12.7625 31.906C13.4078 31.906 13.9285 32.071 14.3245 32.401C14.7205 32.7237 14.9332 33.171 14.9625 33.743H14.1925C14.1705 33.391 14.0312 33.1087 13.7745 32.896C13.5252 32.676 13.1805 32.566 12.7405 32.566C12.3518 32.566 12.0365 32.6577 11.7945 32.841C11.5525 33.0243 11.4315 33.2517 11.4315 33.523C11.4315 33.7577 11.5012 33.952 11.6405 34.106C11.7872 34.2527 11.9668 34.37 12.1795 34.458C12.3922 34.5387 12.6782 34.6303 13.0375 34.733C13.4702 34.8503 13.8148 34.964 14.0715 35.074C14.3282 35.184 14.5482 35.3453 14.7315 35.558C14.9148 35.7707 15.0102 36.053 15.0175 36.405C15.0175 36.7277 14.9295 37.0173 14.7535 37.274C14.5775 37.5233 14.3318 37.7213 14.0165 37.868C13.7012 38.0147 13.3382 38.088 12.9275 38.088ZM17.4679 32.643V36.372C17.4679 36.7387 17.5376 36.9917 17.6769 37.131C17.8162 37.2703 18.0619 37.34 18.4139 37.34H19.1179V38H18.2929C17.7502 38 17.3469 37.8753 17.0829 37.626C16.8189 37.3693 16.6869 36.9513 16.6869 36.372V32.643H15.8509V31.994H16.6869V30.487H17.4679V31.994H19.1179V32.643H17.4679ZM23.0168 38.088C22.4521 38.088 21.9425 37.9633 21.4878 37.714C21.0405 37.4573 20.6848 37.098 20.4208 36.636C20.1641 36.1667 20.0358 35.6203 20.0358 34.997C20.0358 34.3737 20.1678 33.831 20.4318 33.369C20.6958 32.8997 21.0551 32.5403 21.5098 32.291C21.9645 32.0343 22.4741 31.906 23.0388 31.906C23.6035 31.906 24.1131 32.0343 24.5678 32.291C25.0298 32.5403 25.3891 32.8997 25.6458 33.369C25.9098 33.831 26.0418 34.3737 26.0418 34.997C26.0418 35.613 25.9098 36.1557 25.6458 36.625C25.3818 37.0943 25.0188 37.4573 24.5568 37.714C24.0948 37.9633 23.5815 38.088 23.0168 38.088ZM23.0168 37.417C23.4128 37.417 23.7795 37.329 24.1168 37.153C24.4541 36.9697 24.7255 36.6983 24.9308 36.339C25.1435 35.9723 25.2498 35.525 25.2498 34.997C25.2498 34.469 25.1471 34.0253 24.9418 33.666C24.7365 33.2993 24.4651 33.028 24.1278 32.852C23.7905 32.6687 23.4238 32.577 23.0278 32.577C22.6318 32.577 22.2651 32.6687 21.9278 32.852C21.5905 33.028 21.3191 33.2993 21.1138 33.666C20.9158 34.0253 20.8168 34.469 20.8168 34.997C20.8168 35.525 20.9158 35.9723 21.1138 36.339C21.3191 36.6983 21.5868 36.9697 21.9168 37.153C22.2541 37.329 22.6208 37.417 23.0168 37.417ZM28.2154 33.061C28.3841 32.687 28.6408 32.3973 28.9854 32.192C29.3374 31.9867 29.7664 31.884 30.2724 31.884V32.687H30.0634C29.5061 32.687 29.0588 32.8373 28.7214 33.138C28.3841 33.4387 28.2154 33.941 28.2154 34.645V38H27.4454V31.994H28.2154V33.061ZM36.3808 31.994L32.8168 40.827H32.0138L33.1798 37.967L30.7158 31.994H31.5628L33.6088 37.12L35.5888 31.994H36.3808Z" fill="black"/>
<path fill-rule="evenodd" clip-rule="evenodd" d="M9.58579 0.585786C9 1.17157 9 2.11438 9 4V19C9 20.8856 9 21.8284 9.58579 22.4142C10.1716 23 11.1144 23 13 23H24C25.8856 23 26.8284 23 27.4142 22.4142C28 21.8284 28 20.8856 28 19V4C28 2.11438 28 1.17157 27.4142 0.585786C26.8284 0 25.8856 0 24 0H13C11.1144 0 10.1716 0 9.58579 0.585786ZM14.4286 5.76471C13.8763 5.76471 13.4286 6.21242 13.4286 6.76471C13.4286 7.31699 13.8763 7.76471 14.4286 7.76471H22.5714C23.1237 7.76471 23.5714 7.31699 23.5714 6.76471C23.5714 6.21242 23.1237 5.76471 22.5714 5.76471H14.4286ZM14.4286 11.1765C13.8763 11.1765 13.4286 11.6242 13.4286 12.1765C13.4286 12.7288 13.8763 13.1765 14.4286 13.1765H22.5714C23.1237 13.1765 23.5714 12.7288 23.5714 12.1765C23.5714 11.6242 23.1237 11.1765 22.5714 11.1765H14.4286ZM14.4286 16.5882C13.8763 16.5882 13.4286 17.0359 13.4286 17.5882C13.4286 18.1405 13.8763 18.5882 14.4286 18.5882H19.8572C20.4094 18.5882 20.8572 18.1405 20.8572 17.5882C20.8572 17.0359 20.4094 16.5882 19.8572 16.5882H14.4286Z" fill="#173C90"/>
</svg>
