<svg width="33" height="43" viewBox="0 0 33 43" fill="none" xmlns="http://www.w3.org/2000/svg">
<path fill-rule="evenodd" clip-rule="evenodd" d="M7.37248 7.41646C7 8.27167 7 9.24459 7 11.1904V17.2675C7 19.9698 7 21.321 7.795 22.1605C8.55599 22.9641 9.76094 22.9985 12.1071 22.9999V15.8344C12.1071 14.5427 13.1118 13.4013 14.4643 13.4013H18.5357C19.8882 13.4013 20.8929 14.5427 20.8929 15.8344V22.9999C23.2391 22.9985 24.444 22.9641 25.205 22.1605C26 21.321 26 19.9698 26 17.2675V11.1904C26 9.24459 26 8.27167 25.6275 7.41646C25.255 6.56125 24.5555 5.92808 23.1564 4.66174L21.7993 3.43334C19.2705 1.14445 18.0061 0 16.5 0C14.9939 0 13.7295 1.14445 11.2007 3.43335L9.84356 4.66174C8.4445 5.92808 7.74497 6.56125 7.37248 7.41646ZM18.8929 23V15.8344C18.8929 15.5432 18.6823 15.4013 18.5357 15.4013H14.4643C14.3177 15.4013 14.1071 15.5432 14.1071 15.8344V23H18.8929Z" fill="#173C90"/>
<path d="M6.589 30.311V38H5.819V34.403H1.65V38H0.88V30.311H1.65V33.765H5.819V30.311H6.589ZM10.9748 38.088C10.4102 38.088 9.90049 37.9633 9.44582 37.714C8.99849 37.4573 8.64282 37.098 8.37882 36.636C8.12215 36.1667 7.99382 35.6203 7.99382 34.997C7.99382 34.3737 8.12582 33.831 8.38982 33.369C8.65382 32.8997 9.01315 32.5403 9.46782 32.291C9.92249 32.0343 10.4322 31.906 10.9968 31.906C11.5615 31.906 12.0712 32.0343 12.5258 32.291C12.9878 32.5403 13.3472 32.8997 13.6038 33.369C13.8678 33.831 13.9998 34.3737 13.9998 34.997C13.9998 35.613 13.8678 36.1557 13.6038 36.625C13.3398 37.0943 12.9768 37.4573 12.5148 37.714C12.0528 37.9633 11.5395 38.088 10.9748 38.088ZM10.9748 37.417C11.3708 37.417 11.7375 37.329 12.0748 37.153C12.4122 36.9697 12.6835 36.6983 12.8888 36.339C13.1015 35.9723 13.2078 35.525 13.2078 34.997C13.2078 34.469 13.1052 34.0253 12.8998 33.666C12.6945 33.2993 12.4232 33.028 12.0858 32.852C11.7485 32.6687 11.3818 32.577 10.9858 32.577C10.5898 32.577 10.2232 32.6687 9.88582 32.852C9.54849 33.028 9.27715 33.2993 9.07182 33.666C8.87382 34.0253 8.77482 34.469 8.77482 34.997C8.77482 35.525 8.87382 35.9723 9.07182 36.339C9.27715 36.6983 9.54482 36.9697 9.87482 37.153C10.2122 37.329 10.5788 37.417 10.9748 37.417ZM22.5534 31.884C23.2574 31.884 23.8294 32.1077 24.2694 32.555C24.7168 32.995 24.9404 33.6367 24.9404 34.48V38H24.1814V34.568C24.1814 33.9153 24.0238 33.4167 23.7084 33.072C23.3931 32.7273 22.9641 32.555 22.4214 32.555C21.8568 32.555 21.4058 32.742 21.0684 33.116C20.7311 33.49 20.5624 34.0327 20.5624 34.744V38H19.8034V34.568C19.8034 33.9153 19.6458 33.4167 19.3304 33.072C19.0151 32.7273 18.5824 32.555 18.0324 32.555C17.4678 32.555 17.0168 32.742 16.6794 33.116C16.3421 33.49 16.1734 34.0327 16.1734 34.744V38H15.4034V31.994H16.1734V33.028C16.3641 32.654 16.6354 32.3717 16.9874 32.181C17.3394 31.983 17.7318 31.884 18.1644 31.884C18.6851 31.884 19.1398 32.0087 19.5284 32.258C19.9244 32.5073 20.2104 32.874 20.3864 33.358C20.5478 32.8813 20.8228 32.5183 21.2114 32.269C21.6074 32.0123 22.0548 31.884 22.5534 31.884ZM32.0845 34.689C32.0845 34.953 32.0772 35.1547 32.0625 35.294H27.0795C27.1015 35.7487 27.2115 36.1373 27.4095 36.46C27.6075 36.7827 27.8678 37.0283 28.1905 37.197C28.5132 37.3583 28.8652 37.439 29.2465 37.439C29.7452 37.439 30.1632 37.318 30.5005 37.076C30.8452 36.834 31.0725 36.5077 31.1825 36.097H31.9965C31.8498 36.6837 31.5345 37.164 31.0505 37.538C30.5738 37.9047 29.9725 38.088 29.2465 38.088C28.6818 38.088 28.1758 37.9633 27.7285 37.714C27.2812 37.4573 26.9292 37.098 26.6725 36.636C26.4232 36.1667 26.2985 35.6203 26.2985 34.997C26.2985 34.3737 26.4232 33.8273 26.6725 33.358C26.9218 32.8887 27.2702 32.5293 27.7175 32.28C28.1648 32.0307 28.6745 31.906 29.2465 31.906C29.8185 31.906 30.3172 32.0307 30.7425 32.28C31.1752 32.5293 31.5052 32.8667 31.7325 33.292C31.9672 33.71 32.0845 34.1757 32.0845 34.689ZM31.3035 34.667C31.3108 34.2197 31.2192 33.8383 31.0285 33.523C30.8452 33.2077 30.5922 32.9693 30.2695 32.808C29.9468 32.6467 29.5948 32.566 29.2135 32.566C28.6415 32.566 28.1538 32.7493 27.7505 33.116C27.3472 33.4827 27.1235 33.9997 27.0795 34.667H31.3035Z" fill="black"/>
</svg>
