<svg width="33" height="44" viewBox="0 0 33 44" fill="none" xmlns="http://www.w3.org/2000/svg">
<path fill-rule="evenodd" clip-rule="evenodd" d="M7.37248 8.41646C7 9.27167 7 10.2446 7 12.1904V18.2675C7 20.9698 7 22.321 7.795 23.1605C8.55599 23.9641 9.76094 23.9985 12.1071 23.9999V16.8344C12.1071 15.5427 13.1118 14.4013 14.4643 14.4013H18.5357C19.8882 14.4013 20.8929 15.5427 20.8929 16.8344V23.9999C23.2391 23.9985 24.444 23.9641 25.205 23.1605C26 22.321 26 20.9698 26 18.2675V12.1904C26 10.2446 26 9.27167 25.6275 8.41646C25.255 7.56125 24.5555 6.92808 23.1564 5.66174L21.7993 4.43334C19.2705 2.14445 18.0061 1 16.5 1C14.9939 1 13.7295 2.14445 11.2007 4.43335L9.84356 5.66174C8.4445 6.92808 7.74497 7.56125 7.37248 8.41646ZM18.8929 24V16.8344C18.8929 16.5432 18.6823 16.4013 18.5357 16.4013H14.4643C14.3177 16.4013 14.1071 16.5432 14.1071 16.8344V24H18.8929Z" fill="#FCFCFC"/>
<path d="M7.37248 8.41646L7.83089 8.61612H7.83089L7.37248 8.41646ZM7.795 23.1605L8.15804 22.8167H8.15804L7.795 23.1605ZM12.1071 23.9999L12.1068 24.4999L12.6071 24.5002V23.9999H12.1071ZM20.8929 23.9999H20.3929V24.5002L20.8932 24.4999L20.8929 23.9999ZM25.205 23.1605L24.842 22.8167L25.205 23.1605ZM25.6275 8.41646L26.0859 8.2168V8.2168L25.6275 8.41646ZM23.1564 5.66174L23.492 5.29105L23.1564 5.66174ZM21.7993 4.43334L21.4638 4.80404L21.7993 4.43334ZM11.2007 4.43335L11.5362 4.80404H11.5362L11.2007 4.43335ZM9.84356 5.66174L9.50802 5.29104L9.84356 5.66174ZM18.8929 24V24.5H19.3929V24H18.8929ZM14.1071 24H13.6071V24.5H14.1071V24ZM7.5 12.1904C7.5 10.2006 7.50978 9.35338 7.83089 8.61612L6.91408 8.2168C6.49022 9.18995 6.5 10.2885 6.5 12.1904H7.5ZM7.5 18.2675V12.1904H6.5V18.2675H7.5ZM8.15804 22.8167C7.86398 22.5062 7.6883 22.0793 7.59537 21.3494C7.50095 20.6078 7.5 19.632 7.5 18.2675H6.5C6.5 19.6052 6.49905 20.6562 6.60338 21.4757C6.7092 22.3069 6.93102 22.9753 7.43195 23.5043L8.15804 22.8167ZM12.1075 23.4999C10.9231 23.4992 10.0779 23.489 9.43483 23.3872C8.80909 23.2881 8.43645 23.1107 8.15804 22.8167L7.43195 23.5043C7.91453 24.0139 8.52487 24.2555 9.2784 24.3749C10.0146 24.4915 10.945 24.4992 12.1068 24.4999L12.1075 23.4999ZM12.6071 23.9999V16.8344H11.6071V23.9999H12.6071ZM12.6071 16.8344C12.6071 15.7895 13.4164 14.9013 14.4643 14.9013V13.9013C12.8072 13.9013 11.6071 15.2959 11.6071 16.8344H12.6071ZM14.4643 14.9013H18.5357V13.9013H14.4643V14.9013ZM18.5357 14.9013C19.5836 14.9013 20.3929 15.7895 20.3929 16.8344H21.3929C21.3929 15.2959 20.1928 13.9013 18.5357 13.9013V14.9013ZM20.3929 16.8344V23.9999H21.3929V16.8344H20.3929ZM24.842 22.8167C24.5635 23.1107 24.1909 23.2881 23.5652 23.3872C22.9221 23.489 22.0769 23.4992 20.8925 23.4999L20.8932 24.4999C22.055 24.4992 22.9854 24.4915 23.7216 24.3749C24.4751 24.2555 25.0855 24.0139 25.5681 23.5043L24.842 22.8167ZM25.5 18.2675C25.5 19.632 25.499 20.6078 25.4046 21.3494C25.3117 22.0793 25.136 22.5062 24.842 22.8167L25.5681 23.5043C26.069 22.9753 26.2908 22.3069 26.3966 21.4757C26.501 20.6562 26.5 19.6052 26.5 18.2675H25.5ZM25.5 12.1904V18.2675H26.5V12.1904H25.5ZM25.1691 8.61612C25.4902 9.35338 25.5 10.2006 25.5 12.1904H26.5C26.5 10.2885 26.5098 9.18995 26.0859 8.2168L25.1691 8.61612ZM22.8209 6.03244C24.2521 7.32789 24.8495 7.8824 25.1691 8.61612L26.0859 8.2168C25.6605 7.24011 24.8589 6.52827 23.492 5.29105L22.8209 6.03244ZM21.4638 4.80404L22.8209 6.03244L23.492 5.29105L22.1348 4.06265L21.4638 4.80404ZM16.5 1.5C17.1103 1.5 17.7028 1.72629 18.4801 2.26844C19.2684 2.81823 20.1895 3.6507 21.4638 4.80404L22.1348 4.06265C20.8803 2.92709 19.9048 2.04289 19.0522 1.44823C18.1886 0.845932 17.3958 0.5 16.5 0.5V1.5ZM11.5362 4.80404C12.8105 3.6507 13.7316 2.81823 14.5199 2.26844C15.2972 1.72629 15.8897 1.5 16.5 1.5V0.5C15.6042 0.5 14.8114 0.845932 13.9478 1.44823C13.0952 2.04289 12.1197 2.92709 10.8652 4.06265L11.5362 4.80404ZM10.1791 6.03244L11.5362 4.80404L10.8652 4.06265L9.50802 5.29104L10.1791 6.03244ZM7.83089 8.61612C8.15046 7.8824 8.74787 7.32789 10.1791 6.03244L9.50802 5.29104C8.14113 6.52827 7.33947 7.24011 6.91408 8.2168L7.83089 8.61612ZM19.3929 24V16.8344H18.3929V24H19.3929ZM19.3929 16.8344C19.3929 16.2731 18.9645 15.9013 18.5357 15.9013V16.9013C18.4942 16.9013 18.4662 16.8919 18.4511 16.8853C18.4346 16.878 18.4224 16.869 18.4134 16.8599C18.4038 16.8502 18.3977 16.8401 18.3944 16.832C18.391 16.8235 18.3929 16.8228 18.3929 16.8344H19.3929ZM18.5357 15.9013H14.4643V16.9013H18.5357V15.9013ZM14.4643 15.9013C14.0355 15.9013 13.6071 16.2731 13.6071 16.8344H14.6071C14.6071 16.8228 14.609 16.8235 14.6056 16.832C14.6023 16.8401 14.5962 16.8502 14.5866 16.8599C14.5776 16.869 14.5654 16.878 14.5489 16.8853C14.5338 16.8919 14.5058 16.9013 14.4643 16.9013V15.9013ZM13.6071 16.8344V24H14.6071V16.8344H13.6071ZM18.8929 23.5H14.1071V24.5H18.8929V23.5Z" fill="#173C90"/>
<path d="M6.589 31.311V39H5.819V35.403H1.65V39H0.88V31.311H1.65V34.765H5.819V31.311H6.589ZM10.9748 39.088C10.4102 39.088 9.90049 38.9633 9.44582 38.714C8.99849 38.4573 8.64282 38.098 8.37882 37.636C8.12215 37.1667 7.99382 36.6203 7.99382 35.997C7.99382 35.3737 8.12582 34.831 8.38982 34.369C8.65382 33.8997 9.01315 33.5403 9.46782 33.291C9.92249 33.0343 10.4322 32.906 10.9968 32.906C11.5615 32.906 12.0712 33.0343 12.5258 33.291C12.9878 33.5403 13.3472 33.8997 13.6038 34.369C13.8678 34.831 13.9998 35.3737 13.9998 35.997C13.9998 36.613 13.8678 37.1557 13.6038 37.625C13.3398 38.0943 12.9768 38.4573 12.5148 38.714C12.0528 38.9633 11.5395 39.088 10.9748 39.088ZM10.9748 38.417C11.3708 38.417 11.7375 38.329 12.0748 38.153C12.4122 37.9697 12.6835 37.6983 12.8888 37.339C13.1015 36.9723 13.2078 36.525 13.2078 35.997C13.2078 35.469 13.1052 35.0253 12.8998 34.666C12.6945 34.2993 12.4232 34.028 12.0858 33.852C11.7485 33.6687 11.3818 33.577 10.9858 33.577C10.5898 33.577 10.2232 33.6687 9.88582 33.852C9.54849 34.028 9.27715 34.2993 9.07182 34.666C8.87382 35.0253 8.77482 35.469 8.77482 35.997C8.77482 36.525 8.87382 36.9723 9.07182 37.339C9.27715 37.6983 9.54482 37.9697 9.87482 38.153C10.2122 38.329 10.5788 38.417 10.9748 38.417ZM22.5534 32.884C23.2574 32.884 23.8294 33.1077 24.2694 33.555C24.7168 33.995 24.9404 34.6367 24.9404 35.48V39H24.1814V35.568C24.1814 34.9153 24.0238 34.4167 23.7084 34.072C23.3931 33.7273 22.9641 33.555 22.4214 33.555C21.8568 33.555 21.4058 33.742 21.0684 34.116C20.7311 34.49 20.5624 35.0327 20.5624 35.744V39H19.8034V35.568C19.8034 34.9153 19.6458 34.4167 19.3304 34.072C19.0151 33.7273 18.5824 33.555 18.0324 33.555C17.4678 33.555 17.0168 33.742 16.6794 34.116C16.3421 34.49 16.1734 35.0327 16.1734 35.744V39H15.4034V32.994H16.1734V34.028C16.3641 33.654 16.6354 33.3717 16.9874 33.181C17.3394 32.983 17.7318 32.884 18.1644 32.884C18.6851 32.884 19.1398 33.0087 19.5284 33.258C19.9244 33.5073 20.2104 33.874 20.3864 34.358C20.5478 33.8813 20.8228 33.5183 21.2114 33.269C21.6074 33.0123 22.0548 32.884 22.5534 32.884ZM32.0845 35.689C32.0845 35.953 32.0772 36.1547 32.0625 36.294H27.0795C27.1015 36.7487 27.2115 37.1373 27.4095 37.46C27.6075 37.7827 27.8678 38.0283 28.1905 38.197C28.5132 38.3583 28.8652 38.439 29.2465 38.439C29.7452 38.439 30.1632 38.318 30.5005 38.076C30.8452 37.834 31.0725 37.5077 31.1825 37.097H31.9965C31.8498 37.6837 31.5345 38.164 31.0505 38.538C30.5738 38.9047 29.9725 39.088 29.2465 39.088C28.6818 39.088 28.1758 38.9633 27.7285 38.714C27.2812 38.4573 26.9292 38.098 26.6725 37.636C26.4232 37.1667 26.2985 36.6203 26.2985 35.997C26.2985 35.3737 26.4232 34.8273 26.6725 34.358C26.9218 33.8887 27.2702 33.5293 27.7175 33.28C28.1648 33.0307 28.6745 32.906 29.2465 32.906C29.8185 32.906 30.3172 33.0307 30.7425 33.28C31.1752 33.5293 31.5052 33.8667 31.7325 34.292C31.9672 34.71 32.0845 35.1757 32.0845 35.689ZM31.3035 35.667C31.3108 35.2197 31.2192 34.8383 31.0285 34.523C30.8452 34.2077 30.5922 33.9693 30.2695 33.808C29.9468 33.6467 29.5948 33.566 29.2135 33.566C28.6415 33.566 28.1538 33.7493 27.7505 34.116C27.3472 34.4827 27.1235 34.9997 27.0795 35.667H31.3035Z" fill="black"/>
</svg>
