<svg width="23" height="18" viewBox="0 0 23 18" fill="none" xmlns="http://www.w3.org/2000/svg">
<path d="M6.35053 1.26134C6.33516 1.26108 6.31975 1.26095 6.30429 1.26095C4.40992 1.26095 2.81868 3.21814 3.36037 5.51239L6.35053 1.26134ZM6.35053 1.26134C5.81221 2.26326 5.51093 3.42128 5.51093 4.64578C5.51093 5.84245 5.79779 6.97269 6.31397 7.95527C4.94841 7.95738 3.71052 6.99308 3.3604 5.51252L6.35053 1.26134ZM20.6042 14.4C20.6588 12.5426 19.7726 11.2796 18.9369 10.5042C19.6549 10.5655 20.2631 10.6644 20.5461 10.7392L20.5581 10.7423L20.5703 10.7449C21.6009 10.9629 22.1408 11.3786 22.3502 11.8608L22.3502 11.8608L22.3524 11.8657C22.5492 12.306 22.549 12.8187 22.3525 13.2575L22.3524 13.2575L22.3492 13.265C22.1884 13.6406 21.8301 13.9259 21.3798 14.1343C21.1131 14.2578 20.8383 14.3429 20.6042 14.4ZM3.41082 10.7389C3.69478 10.6645 4.30318 10.5657 5.02129 10.5045C4.18522 11.28 3.29894 12.5429 3.35374 14.4002C3.11987 14.3431 2.84539 14.2581 2.57901 14.1347C2.12874 13.9263 1.77044 13.6409 1.60964 13.2654L1.6097 13.2654L1.60621 13.2576C1.40893 12.8178 1.40893 12.3065 1.60621 11.8667L1.60624 11.8667L1.60864 11.8612C1.81809 11.3788 2.35742 10.9632 3.3881 10.7442L3.39952 10.7418L3.41082 10.7389ZM18.4475 4.64588C18.4475 3.42137 18.1462 2.26335 17.6079 1.26143C17.6229 1.26117 17.638 1.26104 17.6532 1.26104C19.5476 1.26104 21.139 3.21835 20.598 5.51278C20.2478 6.99325 19.0099 7.95748 17.6444 7.95537C18.1606 6.97279 18.4475 5.84255 18.4475 4.64588ZM6.79795 7.91199L6.79646 7.91227L6.79795 7.91199ZM11.928 11.863C13.6342 11.863 15.1518 12.0108 16.2268 12.4173C16.7596 12.6188 17.1518 12.8722 17.4085 13.1727C17.657 13.4636 17.801 13.8239 17.801 14.2963C17.801 14.7693 17.6576 15.1315 17.4096 15.4245C17.1538 15.7268 16.763 15.9823 16.2317 16.186C15.1596 16.597 13.6427 16.75 11.928 16.75C10.2218 16.75 8.70425 16.6022 7.6292 16.1958C7.09634 15.9944 6.70421 15.7411 6.44749 15.4407C6.199 15.1499 6.05503 14.7898 6.05503 14.3177C6.05503 13.8444 6.19849 13.482 6.44645 13.1889C6.70232 12.8865 7.09308 12.6309 7.62436 12.4271C8.69642 12.016 10.2133 11.863 11.928 11.863ZM11.928 0.5C13.9561 0.5 15.6453 2.26769 15.6453 4.56354C15.6453 6.85864 13.9559 8.62806 11.928 8.62806C9.90015 8.62806 8.21076 6.85864 8.21076 4.56354C8.21076 2.26769 9.89995 0.5 11.928 0.5Z" stroke="black"/>
</svg>
