<svg width="33" height="33" viewBox="0 0 33 33" fill="none" xmlns="http://www.w3.org/2000/svg">
<g filter="url(#filter0_d_22_107)">
<ellipse cx="17.3136" cy="14.3138" rx="12.3136" ry="12.3138" fill="#FCFCFC"/>
</g>
<path fill-rule="evenodd" clip-rule="evenodd" d="M23.8035 11.1914L23.3356 10.4006C22.9398 9.73151 22.0627 9.50068 21.3749 9.8846V9.8846C21.0474 10.0725 20.6567 10.1258 20.2889 10.0328C19.9211 9.93974 19.6063 9.70802 19.4141 9.3887C19.2904 9.18574 19.224 8.95457 19.2215 8.71857V8.71857C19.2326 8.34019 19.0861 7.97353 18.8152 7.70211C18.5443 7.43068 18.1722 7.27762 17.7836 7.27777H16.841C16.4603 7.27777 16.0953 7.42554 15.8267 7.6884C15.5582 7.95125 15.4082 8.30752 15.41 8.67836V8.67836C15.3987 9.44402 14.7583 10.0589 13.9721 10.0588C13.7298 10.0564 13.4925 9.99166 13.2841 9.8712V9.8712C12.5963 9.48728 11.7192 9.7181 11.3234 10.3872L10.8212 11.1914C10.4259 11.8596 10.6596 12.7135 11.344 13.1013V13.1013C11.7889 13.3515 12.063 13.8138 12.063 14.3142C12.063 14.8146 11.7889 15.277 11.344 15.5272V15.5272C10.6605 15.9123 10.4265 16.7641 10.8212 17.4303V17.4303L11.2959 18.2278C11.4813 18.5537 11.7925 18.7943 12.1604 18.8961C12.5284 18.998 12.9229 18.9528 13.2566 18.7706V18.7706C13.5847 18.5842 13.9756 18.5331 14.3425 18.6287C14.7094 18.7244 15.0219 18.9588 15.2105 19.2799C15.3342 19.4829 15.4006 19.7141 15.4031 19.9501V19.9501C15.4031 20.7236 16.0469 21.3506 16.841 21.3506H17.7836C18.575 21.3507 19.2177 20.7277 19.2215 19.9568V19.9568C19.2196 19.5848 19.3705 19.2275 19.6406 18.9644C19.9106 18.7014 20.2774 18.5544 20.6594 18.5562C20.9011 18.5625 21.1374 18.6269 21.3473 18.7438V18.7438C22.0334 19.1289 22.91 18.9012 23.3081 18.2345V18.2345L23.8035 17.4303C23.9952 17.1098 24.0478 16.728 23.9497 16.3695C23.8515 16.011 23.6107 15.7055 23.2806 15.5205V15.5205C22.9504 15.3354 22.7096 15.0299 22.6115 14.6714C22.5134 14.3129 22.566 13.9311 22.7577 13.6106C22.8824 13.3985 23.0629 13.2227 23.2806 13.1013V13.1013C23.9609 12.7137 24.1941 11.8648 23.8035 11.1981V11.1981V11.1914Z" stroke="#182F5D" stroke-linecap="round" stroke-linejoin="round"/>
<ellipse cx="17.3159" cy="14.3141" rx="1.9814" ry="1.92999" fill="#405EA3" stroke="#182F5D" stroke-linecap="round" stroke-linejoin="round"/>
<defs>
<filter id="filter0_d_22_107" x="0" y="0" width="32.6272" height="32.6275" filterUnits="userSpaceOnUse" color-interpolation-filters="sRGB">
<feFlood flood-opacity="0" result="BackgroundImageFix"/>
<feColorMatrix in="SourceAlpha" type="matrix" values="0 0 0 0 0 0 0 0 0 0 0 0 0 0 0 0 0 0 127 0" result="hardAlpha"/>
<feOffset dx="-1" dy="2"/>
<feGaussianBlur stdDeviation="2"/>
<feComposite in2="hardAlpha" operator="out"/>
<feColorMatrix type="matrix" values="0 0 0 0 0 0 0 0 0 0 0 0 0 0 0 0 0 0 0.15 0"/>
<feBlend mode="normal" in2="BackgroundImageFix" result="effect1_dropShadow_22_107"/>
<feBlend mode="normal" in="SourceGraphic" in2="effect1_dropShadow_22_107" result="shape"/>
</filter>
</defs>
</svg>
