<svg width="13" height="11" viewBox="0 0 13 11" fill="none" xmlns="http://www.w3.org/2000/svg">
<path d="M8.625 5.5C8.625 6.96994 7.64808 8 6.625 8C5.60192 8 4.625 6.96994 4.625 5.5C4.625 4.03006 5.60192 3 6.625 3C7.64808 3 8.625 4.03006 8.625 5.5Z" stroke="#173C90"/>
<path d="M11.6453 4.56078C11.9373 4.97592 12.0834 5.18348 12.0834 5.5C12.0834 5.81652 11.9373 6.02408 11.6453 6.43922C10.7173 7.75822 8.81768 10 6.625 10C4.43232 10 2.53266 7.75822 1.60472 6.43922C1.31267 6.02408 1.16664 5.81652 1.16664 5.5C1.16664 5.18348 1.31267 4.97592 1.60472 4.56078C2.53266 3.24178 4.43232 1 6.625 1C8.81768 1 10.7173 3.24178 11.6453 4.56078Z" stroke="#173C90"/>
</svg>
