<svg width="13" height="14" viewBox="0 0 13 14" fill="none" xmlns="http://www.w3.org/2000/svg">
<mask id="path-1-inside-1_1163_3297" fill="white">
<path d="M10.8741 11.675C9.70583 12.8433 8.15234 13.4868 6.50003 13.4868C4.84772 13.4868 3.29423 12.8433 2.12592 11.675C0.957503 10.5066 0.31405 8.95308 0.31405 7.30078C0.31405 5.64848 0.957503 4.09498 2.12592 2.92671C2.1534 2.89927 2.18211 2.87356 2.21005 2.84669C2.18809 2.91371 2.16411 2.97958 2.12542 3.03751C2.03349 3.17444 1.87997 3.22947 1.78365 3.35803C1.69597 3.47517 1.6255 3.65255 1.59284 3.78414C1.55745 3.92642 1.57896 4.09946 1.52885 4.24145C1.46521 4.42171 1.3496 4.52904 1.37109 4.73805C1.62239 4.81273 1.5134 4.3661 1.72515 4.34314C1.79229 4.50983 1.74816 4.8198 1.72909 5.00152C1.7028 5.2514 1.65411 5.31337 1.80329 5.52787C1.92149 5.69774 1.96065 5.81141 2.18929 5.83828C2.39901 5.86298 2.48601 5.95788 2.5733 6.15996C2.7349 6.19434 2.83285 6.22106 2.85378 6.40017C2.9238 6.43917 3.05578 6.56541 3.12981 6.58491C3.23701 6.61308 3.41621 6.46026 3.51732 6.57798C3.68625 6.77457 3.30331 7.28807 3.23486 7.4653C3.13466 7.72472 3.11987 8.10577 3.36571 8.2921C3.49193 8.38772 3.62616 8.43351 3.66718 8.60699C3.70516 8.76747 3.67565 8.90108 3.74674 9.05275C3.85762 9.2892 4.1114 9.36764 4.29218 9.54848C4.52911 9.78581 4.51292 10.0939 4.51292 10.4299C4.51292 10.7817 4.64658 11.0493 4.69307 11.3714C4.74109 11.7036 4.83875 12.0115 4.90855 12.3328C4.9612 12.5744 5.16957 12.9397 5.47143 12.8906C5.49242 12.7761 5.3737 12.6864 5.35881 12.5731C5.34527 12.47 5.37422 12.3628 5.35368 12.2526C5.31299 12.0342 5.31508 11.9061 5.4598 11.7163C5.51092 11.6493 5.58134 11.5938 5.63422 11.5266C5.73651 11.3964 5.65814 11.4349 5.65373 11.2922C5.64826 11.1141 5.70248 11.2015 5.80986 11.1459C5.8656 11.1171 5.92744 11.03 5.97015 10.9857C6.06404 10.8882 6.20854 10.7713 6.28099 10.6556C6.36252 10.5254 6.35236 10.3439 6.43594 10.2096C6.53185 10.0553 6.66771 10.0552 6.80179 9.95466C6.97557 9.82437 6.90397 9.68715 6.93556 9.50847C6.98854 9.20962 7.12385 8.88014 7.31229 8.64209C7.54938 8.34252 7.65129 8.088 7.36275 7.80027C7.22027 7.65814 7.14597 7.69598 6.95677 7.64658C6.81256 7.60874 6.68268 7.50344 6.53597 7.48538C6.44806 7.47455 6.3961 7.50633 6.31575 7.48524C6.24094 7.46574 6.25001 7.41995 6.17109 7.42082C6.05332 7.42226 5.8888 7.66753 5.78944 7.5108C5.73409 7.42342 5.9021 7.1819 5.89449 7.06476C5.88507 6.92104 5.83159 6.6866 5.69075 6.60803C5.63742 6.57827 5.51905 6.57394 5.45376 6.54895C5.37698 6.51919 5.30177 6.47182 5.23298 6.42762C5.14333 6.37013 4.96988 6.26974 4.93011 6.16689C4.81986 6.16241 4.74527 6.10175 4.63315 6.10319C4.5326 6.10449 4.46586 6.151 4.35713 6.13873C4.26189 6.12818 4.1593 6.05293 4.05667 6.06708C3.98812 6.07662 3.88672 6.16545 3.82743 6.19896C3.67091 6.28721 3.50429 6.35135 3.33106 6.38356C3.063 6.43383 3.01482 6.33141 3.03068 6.08311L2.99055 6.00309C3.0902 5.72619 2.91072 5.70669 2.71306 5.63953C2.68576 5.44236 2.92832 5.30153 2.82687 5.08529C2.62165 5.07475 2.398 5.65209 2.22443 5.40206C2.10995 5.2371 2.28396 4.77589 2.38474 4.63607C2.4863 4.49524 2.85558 4.24116 3.02959 4.2192C3.16501 4.20245 3.28345 4.26182 3.33553 4.38055C3.39229 4.50997 3.31821 4.63188 3.33457 4.77864C3.50762 4.73862 3.46287 4.51849 3.45525 4.40048C3.44267 4.20346 3.54592 4.21834 3.64653 4.0762C3.73805 3.94678 3.75222 3.79901 3.86641 3.67392C3.95533 3.57642 4.05978 3.47373 4.15734 3.38403C4.2686 3.28147 4.39414 3.29086 4.50839 3.21531C4.68202 3.10048 4.45236 2.88728 4.70819 2.90332C4.7992 2.90895 4.75406 2.96571 4.87453 2.93827C4.92565 2.92671 5.02016 2.87948 5.0737 2.85767C5.31784 2.75844 5.14474 2.732 5.03274 2.60273C4.89033 2.43849 5.09193 2.46724 5.2389 2.44254C5.34679 2.42434 5.32405 2.38924 5.4188 2.45265C5.5023 2.50855 5.4532 2.58294 5.57458 2.57875C5.8058 2.57095 5.64562 2.33926 5.59409 2.26227C5.50597 2.13068 5.48339 2.03896 5.2972 2.03391C5.31485 1.97483 5.31722 1.89668 5.29116 1.83962C5.13436 1.86028 5.10733 1.74631 4.98861 1.70154C4.78882 1.62585 4.82087 1.7895 4.73917 1.90101C4.65487 2.01614 4.49418 1.9962 4.43234 2.1366C4.36807 2.28264 4.42935 2.39444 4.19446 2.35443C4.2264 2.26646 4.21539 2.15394 4.20947 2.06005C4.14119 2.05124 4.07885 2.03391 4.01565 2.0134C4.01593 1.77867 4.2761 1.75888 4.45283 1.73649C4.65086 1.7115 4.71558 1.51015 4.89247 1.47606C5.05751 1.44443 5.17571 1.71165 5.37923 1.5568C5.49535 1.4684 5.44169 1.41655 5.39921 1.33133C5.38781 1.30865 5.3293 1.25737 5.31373 1.23614L5.30984 1.22906C5.46754 1.19858 5.62715 1.17504 5.78796 1.15684C5.81815 1.24466 5.88372 1.35083 5.91955 1.41164C5.94573 1.45613 5.99527 1.48617 6.0162 1.53513C6.04006 1.59089 5.98387 1.66022 6.05435 1.69792C6.16319 1.75599 6.47999 1.37726 6.55606 1.31587C6.65261 1.23773 6.71291 1.19497 6.68994 1.11957C7.19917 1.13473 7.69761 1.2113 8.17721 1.34563C8.21536 1.39344 8.25451 1.44269 8.29373 1.49715C8.37813 1.61429 8.43146 1.71988 8.58363 1.77203C8.67171 1.80207 8.95309 1.79673 8.83612 1.99779C8.72808 2.1834 8.60862 1.94016 8.55424 1.8818C8.47874 1.80077 8.25564 1.71078 8.26263 1.89668C8.27308 2.17329 8.89616 2.1288 8.76244 2.43257C8.83703 2.47663 8.9844 2.54972 8.9602 2.65848C8.93035 2.79282 8.75539 2.70716 8.75883 2.87891C8.76374 3.12215 9.02921 3.32235 9.27572 3.23481C9.53859 3.1415 9.34066 2.77664 9.6418 2.73908C9.76056 2.7242 9.83047 2.75901 9.93678 2.84322C10.0234 2.91184 10.0792 3.06755 10.1987 3.05542C10.2111 2.98132 10.1552 2.9283 10.1456 2.86013C10.2381 2.88324 10.424 2.99865 10.477 3.0791C10.5573 3.20087 10.5488 3.37637 10.7449 3.21936C10.7156 3.19509 10.7009 3.14136 10.6849 3.12215C10.9358 3.12301 11.111 3.22615 11.2189 3.44397C11.4595 3.93031 10.8684 3.5445 10.8391 3.79771C10.6937 3.75149 10.629 3.63435 10.5026 3.56429C10.4426 3.53107 10.3318 3.54884 10.2859 3.51518C10.2226 3.46881 10.2382 3.3846 10.1826 3.33896C9.96408 3.1597 9.46565 3.44917 9.26465 3.56487C9.21021 3.59622 9.1522 3.59954 9.11508 3.65847C9.05127 3.75958 9.14087 3.78544 9.12083 3.87976C9.0924 4.01438 8.9167 4.07635 8.86361 4.18425C8.73609 4.44324 8.99506 4.81403 8.9602 5.10161C8.94084 5.26123 8.76865 5.43441 8.83477 5.56788C8.8632 5.62537 8.96246 5.67434 9.00038 5.74223C9.0349 5.80376 9.04964 5.88451 9.09505 5.94835C9.24237 6.15534 9.45419 6.38558 9.62679 6.57899C9.72491 6.68877 9.85835 6.71954 10.0063 6.68906C10.1283 6.66392 10.3138 6.62305 10.4269 6.56874C10.5781 6.49652 10.5982 6.39439 10.7571 6.46329C10.8835 6.51833 10.9948 6.67938 11.1425 6.54591C11.2642 6.66494 11.1292 6.87207 11.102 7.00467C11.0672 7.17454 11.1344 7.32187 11.2388 7.46631C11.364 7.6395 11.3935 7.66998 11.3678 7.90153C11.3479 8.08194 11.3021 8.24689 11.2632 8.42571C11.2262 8.59659 11.1173 8.72645 11.123 8.90758C11.1284 9.07456 11.2007 9.20904 11.1787 9.38829C11.1594 9.54617 11.1497 9.73438 11.1085 9.88908C11.0662 10.0474 10.9544 10.1878 10.9072 10.3499C10.8625 10.5041 10.8751 10.7037 10.983 10.8306C11.0952 10.9626 11.2067 10.887 11.3386 10.7871C11.5983 10.5898 11.7166 10.2551 11.8892 9.98918C12.0654 9.71748 12.2431 9.46961 12.3605 9.18809C12.3854 9.12829 12.4156 9.06951 12.4462 9.01057C12.1611 10.0075 11.6275 10.9216 10.8741 11.675ZM6.50003 0.800781C2.91027 0.800781 0 3.71105 0 7.30078C0 10.8907 2.91027 13.8008 6.50003 13.8008C10.0899 13.8008 13 10.8907 13 7.30078C13 3.71105 10.0899 0.800781 6.50003 0.800781Z"/>
</mask>
<path d="M10.8741 11.675C9.70583 12.8433 8.15234 13.4868 6.50003 13.4868C4.84772 13.4868 3.29423 12.8433 2.12592 11.675C0.957503 10.5066 0.31405 8.95308 0.31405 7.30078C0.31405 5.64848 0.957503 4.09498 2.12592 2.92671C2.1534 2.89927 2.18211 2.87356 2.21005 2.84669C2.18809 2.91371 2.16411 2.97958 2.12542 3.03751C2.03349 3.17444 1.87997 3.22947 1.78365 3.35803C1.69597 3.47517 1.6255 3.65255 1.59284 3.78414C1.55745 3.92642 1.57896 4.09946 1.52885 4.24145C1.46521 4.42171 1.3496 4.52904 1.37109 4.73805C1.62239 4.81273 1.5134 4.3661 1.72515 4.34314C1.79229 4.50983 1.74816 4.8198 1.72909 5.00152C1.7028 5.2514 1.65411 5.31337 1.80329 5.52787C1.92149 5.69774 1.96065 5.81141 2.18929 5.83828C2.39901 5.86298 2.48601 5.95788 2.5733 6.15996C2.7349 6.19434 2.83285 6.22106 2.85378 6.40017C2.9238 6.43917 3.05578 6.56541 3.12981 6.58491C3.23701 6.61308 3.41621 6.46026 3.51732 6.57798C3.68625 6.77457 3.30331 7.28807 3.23486 7.4653C3.13466 7.72472 3.11987 8.10577 3.36571 8.2921C3.49193 8.38772 3.62616 8.43351 3.66718 8.60699C3.70516 8.76747 3.67565 8.90108 3.74674 9.05275C3.85762 9.2892 4.1114 9.36764 4.29218 9.54848C4.52911 9.78581 4.51292 10.0939 4.51292 10.4299C4.51292 10.7817 4.64658 11.0493 4.69307 11.3714C4.74109 11.7036 4.83875 12.0115 4.90855 12.3328C4.9612 12.5744 5.16957 12.9397 5.47143 12.8906C5.49242 12.7761 5.3737 12.6864 5.35881 12.5731C5.34527 12.47 5.37422 12.3628 5.35368 12.2526C5.31299 12.0342 5.31508 11.9061 5.4598 11.7163C5.51092 11.6493 5.58134 11.5938 5.63422 11.5266C5.73651 11.3964 5.65814 11.4349 5.65373 11.2922C5.64826 11.1141 5.70248 11.2015 5.80986 11.1459C5.8656 11.1171 5.92744 11.03 5.97015 10.9857C6.06404 10.8882 6.20854 10.7713 6.28099 10.6556C6.36252 10.5254 6.35236 10.3439 6.43594 10.2096C6.53185 10.0553 6.66771 10.0552 6.80179 9.95466C6.97557 9.82437 6.90397 9.68715 6.93556 9.50847C6.98854 9.20962 7.12385 8.88014 7.31229 8.64209C7.54938 8.34252 7.65129 8.088 7.36275 7.80027C7.22027 7.65814 7.14597 7.69598 6.95677 7.64658C6.81256 7.60874 6.68268 7.50344 6.53597 7.48538C6.44806 7.47455 6.3961 7.50633 6.31575 7.48524C6.24094 7.46574 6.25001 7.41995 6.17109 7.42082C6.05332 7.42226 5.8888 7.66753 5.78944 7.5108C5.73409 7.42342 5.9021 7.1819 5.89449 7.06476C5.88507 6.92104 5.83159 6.6866 5.69075 6.60803C5.63742 6.57827 5.51905 6.57394 5.45376 6.54895C5.37698 6.51919 5.30177 6.47182 5.23298 6.42762C5.14333 6.37013 4.96988 6.26974 4.93011 6.16689C4.81986 6.16241 4.74527 6.10175 4.63315 6.10319C4.5326 6.10449 4.46586 6.151 4.35713 6.13873C4.26189 6.12818 4.1593 6.05293 4.05667 6.06708C3.98812 6.07662 3.88672 6.16545 3.82743 6.19896C3.67091 6.28721 3.50429 6.35135 3.33106 6.38356C3.063 6.43383 3.01482 6.33141 3.03068 6.08311L2.99055 6.00309C3.0902 5.72619 2.91072 5.70669 2.71306 5.63953C2.68576 5.44236 2.92832 5.30153 2.82687 5.08529C2.62165 5.07475 2.398 5.65209 2.22443 5.40206C2.10995 5.2371 2.28396 4.77589 2.38474 4.63607C2.4863 4.49524 2.85558 4.24116 3.02959 4.2192C3.16501 4.20245 3.28345 4.26182 3.33553 4.38055C3.39229 4.50997 3.31821 4.63188 3.33457 4.77864C3.50762 4.73862 3.46287 4.51849 3.45525 4.40048C3.44267 4.20346 3.54592 4.21834 3.64653 4.0762C3.73805 3.94678 3.75222 3.79901 3.86641 3.67392C3.95533 3.57642 4.05978 3.47373 4.15734 3.38403C4.2686 3.28147 4.39414 3.29086 4.50839 3.21531C4.68202 3.10048 4.45236 2.88728 4.70819 2.90332C4.7992 2.90895 4.75406 2.96571 4.87453 2.93827C4.92565 2.92671 5.02016 2.87948 5.0737 2.85767C5.31784 2.75844 5.14474 2.732 5.03274 2.60273C4.89033 2.43849 5.09193 2.46724 5.2389 2.44254C5.34679 2.42434 5.32405 2.38924 5.4188 2.45265C5.5023 2.50855 5.4532 2.58294 5.57458 2.57875C5.8058 2.57095 5.64562 2.33926 5.59409 2.26227C5.50597 2.13068 5.48339 2.03896 5.2972 2.03391C5.31485 1.97483 5.31722 1.89668 5.29116 1.83962C5.13436 1.86028 5.10733 1.74631 4.98861 1.70154C4.78882 1.62585 4.82087 1.7895 4.73917 1.90101C4.65487 2.01614 4.49418 1.9962 4.43234 2.1366C4.36807 2.28264 4.42935 2.39444 4.19446 2.35443C4.2264 2.26646 4.21539 2.15394 4.20947 2.06005C4.14119 2.05124 4.07885 2.03391 4.01565 2.0134C4.01593 1.77867 4.2761 1.75888 4.45283 1.73649C4.65086 1.7115 4.71558 1.51015 4.89247 1.47606C5.05751 1.44443 5.17571 1.71165 5.37923 1.5568C5.49535 1.4684 5.44169 1.41655 5.39921 1.33133C5.38781 1.30865 5.3293 1.25737 5.31373 1.23614L5.30984 1.22906C5.46754 1.19858 5.62715 1.17504 5.78796 1.15684C5.81815 1.24466 5.88372 1.35083 5.91955 1.41164C5.94573 1.45613 5.99527 1.48617 6.0162 1.53513C6.04006 1.59089 5.98387 1.66022 6.05435 1.69792C6.16319 1.75599 6.47999 1.37726 6.55606 1.31587C6.65261 1.23773 6.71291 1.19497 6.68994 1.11957C7.19917 1.13473 7.69761 1.2113 8.17721 1.34563C8.21536 1.39344 8.25451 1.44269 8.29373 1.49715C8.37813 1.61429 8.43146 1.71988 8.58363 1.77203C8.67171 1.80207 8.95309 1.79673 8.83612 1.99779C8.72808 2.1834 8.60862 1.94016 8.55424 1.8818C8.47874 1.80077 8.25564 1.71078 8.26263 1.89668C8.27308 2.17329 8.89616 2.1288 8.76244 2.43257C8.83703 2.47663 8.9844 2.54972 8.9602 2.65848C8.93035 2.79282 8.75539 2.70716 8.75883 2.87891C8.76374 3.12215 9.02921 3.32235 9.27572 3.23481C9.53859 3.1415 9.34066 2.77664 9.6418 2.73908C9.76056 2.7242 9.83047 2.75901 9.93678 2.84322C10.0234 2.91184 10.0792 3.06755 10.1987 3.05542C10.2111 2.98132 10.1552 2.9283 10.1456 2.86013C10.2381 2.88324 10.424 2.99865 10.477 3.0791C10.5573 3.20087 10.5488 3.37637 10.7449 3.21936C10.7156 3.19509 10.7009 3.14136 10.6849 3.12215C10.9358 3.12301 11.111 3.22615 11.2189 3.44397C11.4595 3.93031 10.8684 3.5445 10.8391 3.79771C10.6937 3.75149 10.629 3.63435 10.5026 3.56429C10.4426 3.53107 10.3318 3.54884 10.2859 3.51518C10.2226 3.46881 10.2382 3.3846 10.1826 3.33896C9.96408 3.1597 9.46565 3.44917 9.26465 3.56487C9.21021 3.59622 9.1522 3.59954 9.11508 3.65847C9.05127 3.75958 9.14087 3.78544 9.12083 3.87976C9.0924 4.01438 8.9167 4.07635 8.86361 4.18425C8.73609 4.44324 8.99506 4.81403 8.9602 5.10161C8.94084 5.26123 8.76865 5.43441 8.83477 5.56788C8.8632 5.62537 8.96246 5.67434 9.00038 5.74223C9.0349 5.80376 9.04964 5.88451 9.09505 5.94835C9.24237 6.15534 9.45419 6.38558 9.62679 6.57899C9.72491 6.68877 9.85835 6.71954 10.0063 6.68906C10.1283 6.66392 10.3138 6.62305 10.4269 6.56874C10.5781 6.49652 10.5982 6.39439 10.7571 6.46329C10.8835 6.51833 10.9948 6.67938 11.1425 6.54591C11.2642 6.66494 11.1292 6.87207 11.102 7.00467C11.0672 7.17454 11.1344 7.32187 11.2388 7.46631C11.364 7.6395 11.3935 7.66998 11.3678 7.90153C11.3479 8.08194 11.3021 8.24689 11.2632 8.42571C11.2262 8.59659 11.1173 8.72645 11.123 8.90758C11.1284 9.07456 11.2007 9.20904 11.1787 9.38829C11.1594 9.54617 11.1497 9.73438 11.1085 9.88908C11.0662 10.0474 10.9544 10.1878 10.9072 10.3499C10.8625 10.5041 10.8751 10.7037 10.983 10.8306C11.0952 10.9626 11.2067 10.887 11.3386 10.7871C11.5983 10.5898 11.7166 10.2551 11.8892 9.98918C12.0654 9.71748 12.2431 9.46961 12.3605 9.18809C12.3854 9.12829 12.4156 9.06951 12.4462 9.01057C12.1611 10.0075 11.6275 10.9216 10.8741 11.675ZM6.50003 0.800781C2.91027 0.800781 0 3.71105 0 7.30078C0 10.8907 2.91027 13.8008 6.50003 13.8008C10.0899 13.8008 13 10.8907 13 7.30078C13 3.71105 10.0899 0.800781 6.50003 0.800781Z" fill="black" stroke="black" stroke-width="2" mask="url(#path-1-inside-1_1163_3297)"/>
</svg>
