<svg width="36" height="36" viewBox="0 0 36 36" fill="none" xmlns="http://www.w3.org/2000/svg">
<rect x="0.5" y="0.5" width="35" height="35" rx="6.5" fill="#0190B0" fill-opacity="0.2" stroke="#0190B0"/>
<path opacity="0.4" d="M25.1045 24.1807H20.0429C19.5491 24.1807 19.1475 24.5887 19.1475 25.0903C19.1475 25.5929 19.5491 26 20.0429 26H25.1045C25.5984 26 26 25.5929 26 25.0903C26 24.5887 25.5984 24.1807 25.1045 24.1807" fill="#0190B0"/>
<path d="M16.4969 13.47L21.2932 17.3457C21.4089 17.4384 21.4287 17.6085 21.3384 17.7269L15.6522 25.1361C15.2948 25.5938 14.768 25.8528 14.2036 25.8623L11.0995 25.9006C10.934 25.9025 10.7891 25.7878 10.7515 25.6235L10.046 22.5562C9.92372 21.9924 10.046 21.4096 10.4034 20.9605L16.1178 13.5159C16.21 13.3965 16.3803 13.3755 16.4969 13.47" fill="#0190B0"/>
<path opacity="0.4" d="M23.4406 15.0359L22.5159 16.1902C22.4228 16.3078 22.2554 16.3269 22.1397 16.2332C21.0156 15.3236 18.1372 12.9892 17.3386 12.3423C17.222 12.2467 17.206 12.0767 17.3001 11.9582L18.1918 10.8507C19.0007 9.80919 20.4117 9.71364 21.5499 10.6214L22.8574 11.6629C23.3935 12.0834 23.751 12.6376 23.8733 13.2204C24.0143 13.8616 23.8638 14.4913 23.4406 15.0359" fill="#0190B0"/>
</svg>
