<svg width="36" height="36" viewBox="0 0 36 36" fill="none" xmlns="http://www.w3.org/2000/svg">
<rect x="0.5" y="0.5" width="35" height="35" rx="6.5" fill="#D7E3FC" stroke="#ABC4FF"/>
<path fill-rule="evenodd" clip-rule="evenodd" d="M14.469 10V13.0909L14.469 13.1453C14.4689 13.5694 14.4688 13.9815 14.5145 14.3214C14.566 14.7046 14.6915 15.1419 15.0548 15.5051C15.418 15.8683 15.8552 15.9939 16.2384 16.0454C16.5784 16.0911 16.9905 16.091 17.4145 16.0909H17.4146L17.469 16.0909H19.7227V20.1818C19.7227 22.2389 19.7227 23.2674 19.1888 23.9064C18.6549 24.5455 17.7955 24.5455 16.0767 24.5455H13.646C11.9273 24.5455 11.0679 24.5455 10.5339 23.9064C10 23.2674 10 22.2389 10 20.1818V14.3636C10 12.3066 10 11.2781 10.5339 10.639C11.0679 10 11.9273 10 13.646 10H14.469ZM16.469 10.0464V13.0909C16.469 13.5906 16.4711 13.8647 16.4967 14.0549L16.4977 14.0622L16.5049 14.0632C16.6951 14.0888 16.9693 14.0909 17.469 14.0909H19.7078C19.6953 13.9317 19.6723 13.8039 19.6302 13.6822C19.5377 13.4149 19.3621 13.2047 19.0108 12.7843L17.3963 10.8521C17.0451 10.4316 16.8694 10.2214 16.6461 10.1107C16.5898 10.0828 16.532 10.062 16.469 10.0464ZM12.0384 18C12.0384 17.4477 12.4861 17 13.0384 17L16.6844 17C17.2367 17 17.6844 17.4477 17.6844 18C17.6844 18.5523 17.2367 19 16.6844 19H13.0384C12.4861 19 12.0384 18.5523 12.0384 18ZM13.0384 19.9091C12.4861 19.9091 12.0384 20.3568 12.0384 20.9091C12.0384 21.4614 12.4861 21.9091 13.0384 21.9091H15.4691C16.0214 21.9091 16.4691 21.4614 16.4691 20.9091C16.4691 20.3568 16.0214 19.9091 15.4691 19.9091H13.0384Z" fill="#5194E0"/>
<path d="M19.5729 24.5455H17.6846C17.1323 24.5455 16.6846 24.0977 16.6846 23.5455V20.4545C16.6846 19.9023 17.1323 19.4545 17.6846 19.4545H19.5729C19.6558 19.4545 19.7229 19.5217 19.7229 19.6045V24.3955C19.7229 24.4783 19.6558 24.5455 19.5729 24.5455Z" fill="#FCFCFC" stroke="#FCFCFC" stroke-linecap="round"/>
<path d="M19.5727 25.2727H18.292C17.7397 25.2727 17.292 24.825 17.292 24.2727V21.1818C17.292 20.6295 17.7397 20.1818 18.292 20.1818H19.5727C19.6555 20.1818 19.7227 20.249 19.7227 20.3318V25.1227C19.7227 25.2056 19.6555 25.2727 19.5727 25.2727Z" fill="#5094DF" stroke="#5094DF" stroke-linecap="round"/>
<path d="M19.7227 20.9091L20.8607 18.185C20.9117 18.0629 20.938 17.9318 20.938 17.7995V16.4258C20.938 16.0902 21.2101 15.8182 21.5457 15.8182V15.8182C22.2169 15.8182 22.761 16.3623 22.761 17.0335V20.1818" stroke="#5094DF" stroke-linecap="round"/>
<path d="M21.5457 20.1818H24.7274C25.3754 20.1818 25.8522 20.7887 25.699 21.4183L24.7698 25.2365C24.6608 25.6846 24.2594 26 23.7982 26H22.0133C21.7169 26 21.4359 25.8686 21.2459 25.6412L21.2378 25.6315C21.0478 25.4042 20.7667 25.2727 20.4704 25.2727H19.7227" stroke="#5094DF" stroke-linecap="round"/>
</svg>
