<svg width="36" height="36" viewBox="0 0 36 36" fill="none" xmlns="http://www.w3.org/2000/svg">
<rect x="0.5" y="0.5" width="35" height="35" rx="6.5" fill="#FEF4E0" stroke="#E9D1A9"/>
<path d="M18.9 10.8167L25.0317 22.9778C25.5002 23.9068 24.8268 25.0047 23.7861 25.0088L12.3167 25.0538C11.2759 25.0579 10.5955 23.9653 11.0579 23.0326L17.1112 10.8237C17.4773 10.0853 18.5291 10.0811 18.9 10.8167Z" fill="#F0B743"/>
<path d="M17.674 15.4725C17.6667 15.2745 17.7363 15.1168 17.883 14.9995C18.0297 14.8821 18.1873 14.8235 18.356 14.8235C18.532 14.8235 18.7117 14.8931 18.895 15.0325L18.686 20.2135C18.686 20.3381 18.6383 20.4371 18.543 20.5105C18.4477 20.5765 18.3633 20.6095 18.29 20.6095C18.1433 20.6095 18.0113 20.5765 17.894 20.5105L17.674 15.4725ZM17.806 22.6555C17.6813 22.5308 17.619 22.3768 17.619 22.1935C17.619 22.0101 17.6813 21.8561 17.806 21.7315C17.9307 21.5995 18.0847 21.5335 18.268 21.5335C18.4513 21.5335 18.6053 21.5995 18.73 21.7315C18.862 21.8561 18.928 22.0101 18.928 22.1935C18.928 22.3768 18.862 22.5308 18.73 22.6555C18.6053 22.7801 18.4513 22.8425 18.268 22.8425C18.0847 22.8425 17.9307 22.7801 17.806 22.6555Z" fill="#F5F5F5"/>
</svg>
