<svg width="36" height="36" viewBox="0 0 36 36" fill="none" xmlns="http://www.w3.org/2000/svg">
<rect x="0.5" y="0.5" width="35" height="35" rx="6.5" fill="#FFE6F0" stroke="#F299BE"/>
<path fill-rule="evenodd" clip-rule="evenodd" d="M26 18C26 22.4183 22.4183 26 18 26C13.5817 26 10 22.4183 10 18C10 13.5817 13.5817 10 18 10C22.4183 10 26 13.5817 26 18ZM13.7372 22.2627C13.3467 21.8721 13.3467 21.239 13.7372 20.8484L16.5858 17.9999L13.7374 15.1516C13.3469 14.761 13.3469 14.1279 13.7374 13.7373C14.128 13.3468 14.7611 13.3468 15.1517 13.7373L18 16.5857L20.8483 13.7373C21.2389 13.3468 21.872 13.3468 22.2626 13.7373C22.6531 14.1279 22.6531 14.761 22.2626 15.1516L19.4142 17.9999L22.2628 20.8484C22.6533 21.239 22.6533 21.8721 22.2628 22.2627C21.8722 22.6532 21.2391 22.6532 20.8486 22.2627L18 19.4141L15.1514 22.2627C14.7609 22.6532 14.1278 22.6532 13.7372 22.2627Z" fill="#D49FB9"/>
</svg>
