<svg width="36" height="36" viewBox="0 0 36 36" fill="none" xmlns="http://www.w3.org/2000/svg">
<rect x="0.5" y="0.5" width="35" height="35" rx="6.5" fill="#DFF8F2" stroke="#99DFD0"/>
<path fill-rule="evenodd" clip-rule="evenodd" d="M18 26C22.4183 26 26 22.4183 26 18C26 13.5817 22.4183 10 18 10C13.5817 10 10 13.5817 10 18C10 22.4183 13.5817 26 18 26ZM22.1317 15.8135C22.3969 15.4953 22.3539 15.0223 22.0357 14.7572C21.7175 14.492 21.2446 14.535 20.9794 14.8532L17.937 18.5041C17.595 18.9145 17.3874 19.161 17.2159 19.3169C17.1369 19.3888 17.09 19.418 17.0673 19.4294C17.0611 19.4326 17.0572 19.4341 17.0552 19.4348C17.0532 19.4343 17.0492 19.4331 17.0427 19.4306C17.0191 19.4212 16.9697 19.3964 16.8845 19.3319C16.6997 19.1922 16.4706 18.9655 16.0928 18.5877L14.9748 17.4697C14.6819 17.1768 14.207 17.1768 13.9141 17.4697C13.6212 17.7626 13.6212 18.2374 13.9141 18.5303L15.0322 19.6484L15.0656 19.6819C15.3988 20.0151 15.7018 20.3182 15.9798 20.5284C16.2844 20.7587 16.6561 20.9546 17.1232 20.9335C17.5903 20.9123 17.9428 20.6835 18.2252 20.4265C18.4831 20.192 18.7574 19.8628 19.059 19.5007L19.0893 19.4643L22.1317 15.8135Z" fill="#3ACBA9"/>
</svg>
