<svg width="36" height="36" viewBox="0 0 36 36" fill="none" xmlns="http://www.w3.org/2000/svg">
<rect x="0.5" y="0.5" width="35" height="35" rx="6.5" fill="#FFE2E2" stroke="#FF6666"/>
<path opacity="0.4" d="M23.9448 15.3652C23.9448 15.423 23.5303 21.1526 23.2935 23.564C23.1452 25.0438 22.2723 25.9414 20.9629 25.9669C19.9569 25.9915 18.972 26 18.003 26C16.9743 26 15.9682 25.9915 14.9917 25.9669C13.7262 25.9337 12.8525 25.0183 12.7118 23.564C12.4682 21.1441 12.0613 15.423 12.0537 15.3652C12.0461 15.1909 12.0976 15.0252 12.202 14.8909C12.3048 14.7668 12.4531 14.692 12.6089 14.692H23.3971C23.5522 14.692 23.6929 14.7668 23.8041 14.8909C23.9077 15.0252 23.9599 15.1909 23.9448 15.3652" fill="#FF6666"/>
<path d="M25 12.3803C25 12.031 24.7481 11.7573 24.4455 11.7573H22.1778C21.7163 11.7573 21.3154 11.3986 21.2126 10.8929L21.0855 10.2733C20.9077 9.52443 20.2943 9 19.6059 9H16.3949C15.6989 9 15.0915 9.52443 14.907 10.3141L14.7882 10.8937C14.6846 11.3986 14.2837 11.7573 13.823 11.7573H11.5552C11.2519 11.7573 11 12.031 11 12.3803V12.7033C11 13.0442 11.2519 13.3263 11.5552 13.3263H24.4455C24.7481 13.3263 25 13.0442 25 12.7033V12.3803Z" fill="#FF6666"/>
</svg>
